<svg id="Layer_1" data-name="Layer 1" xmlns="http://www.w3.org/2000/svg" width="1456.46" height="215.13" viewBox="0 0 1456.46 215.13"><path d="M297.15,159.55H268.71v-23h83.17v23H323.43v71.8H297.15Z" transform="translate(-268.71 -134.62)"/><path d="M362.39,136.52h26.28V172h33.74V136.52h26.28v94.83H422.41v-36H388.67v36H362.39Z" transform="translate(-268.71 -134.62)"/><path d="M508.17,233.24a52.57,52.57,0,0,1-20.32-3.86,49.86,49.86,0,0,1-16.12-10.5,48.44,48.44,0,0,1-10.64-15.57,47.73,47.73,0,0,1-3.86-19.1v-.28a48.35,48.35,0,0,1,14.63-34.88,51.26,51.26,0,0,1,16.26-10.57,55.41,55.41,0,0,1,40.64,0A50.29,50.29,0,0,1,544.88,149a48.57,48.57,0,0,1,10.63,15.58,47.56,47.56,0,0,1,3.86,19.1v.27a48.35,48.35,0,0,1-14.63,34.89,50.91,50.91,0,0,1-16.25,10.56A52.61,52.61,0,0,1,508.17,233.24Zm.2-23.7a23.69,23.69,0,0,0,9.92-2,22.7,22.7,0,0,0,7.6-5.48,25.2,25.2,0,0,0,4.89-8.06,26.94,26.94,0,0,0,1.77-9.75v-.28a26.94,26.94,0,0,0-1.77-9.75A24.69,24.69,0,0,0,518,160.43a23.11,23.11,0,0,0-9.92-2.1,23.35,23.35,0,0,0-9.85,2,23.64,23.64,0,0,0-12.5,13.55,28,28,0,0,0-1.7,9.75v.27a27,27,0,0,0,1.77,9.76,25.71,25.71,0,0,0,5,8.13,23.88,23.88,0,0,0,7.67,5.62A23.11,23.11,0,0,0,508.37,209.54Z" transform="translate(-268.71 -134.62)"/><path d="M568.05,136.52h27.77l22.63,36.71,22.62-36.71h27.77v94.83H642.7V176.89L618.52,214H618l-24-36.85v54.19H568.05Z" transform="translate(-268.71 -134.62)"/><path d="M720.42,135.84h25.33l40.37,95.51H758L751,214.41H714.46l-6.77,16.94H680.05Zm23,58.25-10.57-27-10.7,27Z" transform="translate(-268.71 -134.62)"/><path d="M841.59,233A73.68,73.68,0,0,1,817.41,229a58.5,58.5,0,0,1-20.26-11.86l14.63-17.51Q826,211,842.54,211c3.52,0,6.2-.57,8.06-1.69a5.33,5.33,0,0,0,2.77-4.8v-.27a5.13,5.13,0,0,0-.67-2.64,6.94,6.94,0,0,0-2.51-2.23,26.15,26.15,0,0,0-4.88-2.1q-3-1-7.92-2.09-7.59-1.77-14.09-3.86A42.7,42.7,0,0,1,812,185.94a24.42,24.42,0,0,1-7.59-8.25,24.66,24.66,0,0,1-2.78-12.23v-.27A29.19,29.19,0,0,1,804.13,153a27,27,0,0,1,7.32-9.61A34.27,34.27,0,0,1,823,137.13a48.72,48.72,0,0,1,15.31-2.23,68.14,68.14,0,0,1,21.74,3.2,54.88,54.88,0,0,1,17.27,9.47l-13.14,18.62a53.19,53.19,0,0,0-13.34-7,40.3,40.3,0,0,0-13.21-2.37q-4.74,0-7.11,1.76a5.22,5.22,0,0,0-2.37,4.33v.27a5.32,5.32,0,0,0,.74,2.84,6.85,6.85,0,0,0,2.58,2.23,27.86,27.86,0,0,0,5,2q3.18,1,8.06,2.09a115.33,115.33,0,0,1,14.7,4.13,43.79,43.79,0,0,1,11.17,5.74,23.12,23.12,0,0,1,7,8.18,25.09,25.09,0,0,1,2.43,11.43v.27a29.17,29.17,0,0,1-2.77,13,27.85,27.85,0,0,1-7.79,9.67,35.29,35.29,0,0,1-12.06,6.09A55.26,55.26,0,0,1,841.59,233Z" transform="translate(-268.71 -134.62)"/><path d="M973.83,233.24a50.11,50.11,0,0,1-19.1-3.65,46.69,46.69,0,0,1-15.51-10.23,49.28,49.28,0,0,1-14.29-35.15v-.28a49.43,49.43,0,0,1,14.22-35,47.71,47.71,0,0,1,15.78-10.5,51.66,51.66,0,0,1,20-3.8,57.13,57.13,0,0,1,13.27,1.43,45.5,45.5,0,0,1,10.91,4.06,43.84,43.84,0,0,1,8.94,6.3,52.2,52.2,0,0,1,7.11,8l-19.78,15.31a34.3,34.3,0,0,0-8.94-8.13,22.24,22.24,0,0,0-11.78-3,21,21,0,0,0-9.15,2,21.93,21.93,0,0,0-7.11,5.35,24.82,24.82,0,0,0-4.67,8,28,28,0,0,0-1.7,9.75v.27a29,29,0,0,0,1.7,10,24.64,24.64,0,0,0,4.67,8.06,21.93,21.93,0,0,0,7.11,5.35,21,21,0,0,0,9.15,2,25.62,25.62,0,0,0,6.7-.82,20.5,20.5,0,0,0,5.56-2.37,29.68,29.68,0,0,0,4.74-3.65,55.4,55.4,0,0,0,4.4-4.68l19.78,14.09a69.59,69.59,0,0,1-7.39,8.53,42.35,42.35,0,0,1-9.07,6.78A48,48,0,0,1,988,231.62,56.94,56.94,0,0,1,973.83,233.24Z" transform="translate(-268.71 -134.62)"/><path d="M1065.85,135.84h25.34l40.36,95.51h-28.17l-6.91-16.94h-36.58l-6.77,16.94h-27.64Zm23,58.25-10.56-27-10.71,27Z" transform="translate(-268.71 -134.62)"/><path d="M1142.77,136.52h26.28v71.8H1215v23h-72.2Z" transform="translate(-268.71 -134.62)"/><path d="M1225.21,136.52h36.58a68.85,68.85,0,0,1,22.69,3.46,48,48,0,0,1,16.8,9.68,41.54,41.54,0,0,1,10.43,14.83,48.69,48.69,0,0,1,3.59,18.9v.27a48.8,48.8,0,0,1-3.66,19,42.7,42.7,0,0,1-10.57,15.1,48.7,48.7,0,0,1-17,10,67.92,67.92,0,0,1-22.82,3.59h-36Zm37,71.53q11.82,0,19-6.23t7.21-17.75v-.27q0-11.38-7.21-17.68t-19-6.3h-10.75v48.23Z" transform="translate(-268.71 -134.62)"/><path d="M1326.48,136.52h27.77l16.52,54.86,18.29-55.13h22.63L1430,191.38l16.53-54.86h27.23L1442,232h-22.89L1400,177.43l-19,54.59h-22.89Z" transform="translate(-268.71 -134.62)"/><path d="M1485.16,136.52h76.13v22.35H1511v14.36h45.52V194H1511v15H1562v22.35h-76.81Z" transform="translate(-268.71 -134.62)"/><path d="M1571.51,136.52h26.28v71.8h45.93v23h-72.21Z" transform="translate(-268.71 -134.62)"/><path d="M1653,136.52h26.28v71.8h45.92v23H1653Z" transform="translate(-268.71 -134.62)"/><path d="M711.78,321.58h-19.5v26.93h-5.37V276.29h26.21c15.89,0,26.83,8.15,26.83,22.08v.2C740,313.74,726.84,321.58,711.78,321.58Zm22.8-22.9c0-11.46-8.87-17.44-21.87-17.44H692.28v35.39h19.81c13.41,0,22.49-7,22.49-17.75Z" transform="translate(-268.71 -134.62)"/><path d="M786.86,349.75c-21.88,0-36.22-17.44-36.22-37.14v-.21c0-19.71,14.55-37.35,36.42-37.35s36.22,17.44,36.22,37.14c.1.11.1.11,0,.21C823.28,332.11,808.73,349.75,786.86,349.75Zm30.85-37.35c0-17.85-13-32.5-30.85-32.5s-30.65,14.44-30.65,32.29v.21c0,17.85,13,32.5,30.85,32.5s30.65-14.44,30.65-32.29Z" transform="translate(-268.71 -134.62)"/><path d="M888.54,348.51l-23-29.92H841.91v29.92h-5.37V276.29h30.34c15.58,0,25.79,8.46,25.79,20.53V297c0,12.07-9,19-21.15,20.63l23.83,30.85ZM887.31,297c0-9.7-7.64-15.79-20.74-15.79H841.91v32.5h24.35c12.07,0,21-6.09,21-16.51Z" transform="translate(-268.71 -134.62)"/><path d="M941.49,281.24v67.27h-5.36V281.24H911v-4.95h55.72v4.95Z" transform="translate(-268.71 -134.62)"/><path d="M990.34,281.24v29.61h40.86v5H990.34v32.7H985V276.29h50.87v4.95Z" transform="translate(-268.71 -134.62)"/><path d="M1083.61,349.75c-21.87,0-36.21-17.44-36.21-37.14v-.21c0-19.71,14.55-37.35,36.42-37.35S1120,292.49,1120,312.19c.1.11.1.11,0,.21C1120,332.11,1105.49,349.75,1083.61,349.75Zm30.85-37.35c0-17.85-13-32.5-30.85-32.5S1053,294.34,1053,312.19v.21c0,17.85,13,32.5,30.85,32.5s30.64-14.44,30.64-32.29Z" transform="translate(-268.71 -134.62)"/><path d="M1135.3,348.51V276.29h5.36v67.27h42.41v4.95Z" transform="translate(-268.71 -134.62)"/><path d="M1201.89,348.51V276.29h5.37v72.22Z" transform="translate(-268.71 -134.62)"/><path d="M1258.46,349.75c-21.88,0-36.22-17.44-36.22-37.14v-.21c0-19.71,14.55-37.35,36.42-37.35s36.22,17.44,36.22,37.14c.1.11.1.11,0,.21C1294.88,332.11,1280.33,349.75,1258.46,349.75Zm30.85-37.35c0-17.85-13-32.5-30.85-32.5s-30.65,14.44-30.65,32.29v.21c0,17.85,13,32.5,30.85,32.5s30.65-14.44,30.65-32.29Z" transform="translate(-268.71 -134.62)"/></svg>