<svg id="Layer_1" data-name="Layer 1" xmlns="http://www.w3.org/2000/svg" viewBox="0 0 819.43 122.13"><path d="M269.65,431.05h-8.93V388.86h-16v-8.21h40.9v8.21h-16Z" transform="translate(-244.73 -379.79)"/><path d="M307.37,409.81v21.24h-8.78v-50.4h8.78v21h24.2v-21h8.78v50.4h-8.78V409.81Z" transform="translate(-244.73 -379.79)"/><path d="M405.44,415.86a25.45,25.45,0,0,1-5.47,8.32,26.32,26.32,0,0,1-19,7.74,27.12,27.12,0,0,1-10.66-2.05,25.39,25.39,0,0,1-8.28-5.58,25.68,25.68,0,0,1-5.4-8.28,27.16,27.16,0,0,1,0-20.16,25.45,25.45,0,0,1,5.47-8.32,26.2,26.2,0,0,1,8.36-5.65,26.53,26.53,0,0,1,10.65-2.09,26.94,26.94,0,0,1,10.66,2,25,25,0,0,1,13.68,13.86,27.16,27.16,0,0,1,0,20.16ZM396.83,399a17.71,17.71,0,0,0-3.52-5.73,16.92,16.92,0,0,0-5.44-3.88,17.45,17.45,0,0,0-13.79,0,16.22,16.22,0,0,0-5.36,3.82,17.37,17.37,0,0,0-3.49,5.68,19.8,19.8,0,0,0,0,13.9,17.39,17.39,0,0,0,3.52,5.72,16.8,16.8,0,0,0,5.44,3.89,16.48,16.48,0,0,0,6.91,1.44,16.72,16.72,0,0,0,6.88-1.4,16.32,16.32,0,0,0,5.36-3.82,17.37,17.37,0,0,0,3.49-5.69,19.77,19.77,0,0,0,0-13.89Z" transform="translate(-244.73 -379.79)"/><path d="M446.55,418.67h-.29l-15.77-23.62v36h-8.78v-50.4h9.43l15.34,23.84,15.33-23.84h9.43v50.4h-8.78V394.91Z" transform="translate(-244.73 -379.79)"/><path d="M536,431.05h-9.36l-5.11-12.16H497.74l-5.18,12.16h-9.08l22.18-50.76h8.21Zm-26.42-40.17L501,411h17.35Z" transform="translate(-244.73 -379.79)"/><path d="M555.41,396.42a5.31,5.31,0,0,0,1.84,2,14.86,14.86,0,0,0,3.69,1.73q2.34.79,5.95,1.65a59.46,59.46,0,0,1,7,2.23,17.91,17.91,0,0,1,5.09,3,11.86,11.86,0,0,1,3.07,4.11,13.49,13.49,0,0,1,1,5.5,14.86,14.86,0,0,1-1.32,6.41,13.53,13.53,0,0,1-3.68,4.75,16.14,16.14,0,0,1-5.66,3,24.91,24.91,0,0,1-7.27,1,31.84,31.84,0,0,1-11.16-2,30.18,30.18,0,0,1-9.86-6.08l5.33-6.34a30.61,30.61,0,0,0,7.41,4.86,20.41,20.41,0,0,0,8.5,1.7,11,11,0,0,0,6.52-1.73,5.47,5.47,0,0,0,2.41-4.68,6.15,6.15,0,0,0-.47-2.45,4.88,4.88,0,0,0-1.73-2,14.76,14.76,0,0,0-3.47-1.69,59.07,59.07,0,0,0-5.74-1.66,59.69,59.69,0,0,1-7.18-2.09,18,18,0,0,1-5.27-2.88,11.47,11.47,0,0,1-3.25-4.17,14.41,14.41,0,0,1-1.12-6,13.78,13.78,0,0,1,1.29-6,14,14,0,0,1,3.53-4.64,15.72,15.72,0,0,1,5.42-3,21.71,21.71,0,0,1,6.9-1.05,28.84,28.84,0,0,1,10,1.62,29.8,29.8,0,0,1,8.32,4.72L576.8,393a31.29,31.29,0,0,0-6.84-3.86,18.73,18.73,0,0,0-6.84-1.33,9.28,9.28,0,0,0-6,1.77,5.34,5.34,0,0,0-2.16,4.28A6.17,6.17,0,0,0,555.41,396.42Z" transform="translate(-244.73 -379.79)"/><path d="M662.15,426.7a27.19,27.19,0,0,1-4.57,2.81,23.29,23.29,0,0,1-5.36,1.8,32.13,32.13,0,0,1-6.45.61,25.47,25.47,0,0,1-10.22-2,25,25,0,0,1-8.1-5.51,25.33,25.33,0,0,1-5.37-8.24,27.93,27.93,0,0,1,0-20.38,25.11,25.11,0,0,1,13.57-13.93,26.21,26.21,0,0,1,10.51-2,31.27,31.27,0,0,1,6.3.58,24.92,24.92,0,0,1,5.22,1.62,23.73,23.73,0,0,1,4.39,2.48,34,34,0,0,1,3.82,3.17l-5.69,6.55a28.54,28.54,0,0,0-6.41-4.54,16.69,16.69,0,0,0-7.7-1.72,15.71,15.71,0,0,0-6.66,1.4,16.57,16.57,0,0,0-5.29,3.82,17.2,17.2,0,0,0-3.46,5.65,19.73,19.73,0,0,0-1.22,7,20,20,0,0,0,1.22,7,17.46,17.46,0,0,0,3.46,5.73,16.35,16.35,0,0,0,5.29,3.85,15.87,15.87,0,0,0,6.66,1.4A16.6,16.6,0,0,0,654,422a31.1,31.1,0,0,0,6.55-4.79l5.69,5.76A32.67,32.67,0,0,1,662.15,426.7Z" transform="translate(-244.73 -379.79)"/><path d="M727.35,431.05H718l-5.11-12.16H689l-5.18,12.16h-9.07L697,380.29h8.21Zm-26.43-40.17L692.28,411h17.35Z" transform="translate(-244.73 -379.79)"/><path d="M739.59,380.65h8.78v42.41h26.5v8H739.59Z" transform="translate(-244.73 -379.79)"/><path d="M831.39,415.75a23.45,23.45,0,0,1-5.51,8,26.11,26.11,0,0,1-8.5,5.33,29.22,29.22,0,0,1-10.83,1.94h-18.8v-50.4h18.8a29.83,29.83,0,0,1,10.83,1.91,25.69,25.69,0,0,1,8.5,5.29,23.71,23.71,0,0,1,5.51,8,26.49,26.49,0,0,1,0,19.9ZM822.78,399a16.49,16.49,0,0,0-3.54-5.46,16.08,16.08,0,0,0-5.52-3.61,19.22,19.22,0,0,0-7.22-1.3h-10v34.41h10a19.82,19.82,0,0,0,7.22-1.26,15.54,15.54,0,0,0,9.06-9,19.55,19.55,0,0,0,0-13.81Z" transform="translate(-244.73 -379.79)"/><path d="M875,380.51h7.49L894.89,418l12-37.37h9.29l-17.57,50.76H891L878.62,395.2l-12.39,36.21H858.6L841,380.65h9.58l12,37.37Z" transform="translate(-244.73 -379.79)"/><path d="M966.17,388.65H937.66v13h25.27v8H937.66v13.46h28.87v8H928.87v-50.4h37.3Z" transform="translate(-244.73 -379.79)"/><path d="M980.71,380.65h8.79v42.41H1016v8H980.71Z" transform="translate(-244.73 -379.79)"/><path d="M1028.88,380.65h8.79v42.41h26.49v8h-35.28Z" transform="translate(-244.73 -379.79)"/><path d="M461.74,475.06a15.5,15.5,0,0,1-4.33,5.4,19.25,19.25,0,0,1-6.43,3.28,27.05,27.05,0,0,1-7.86,1.11h-10v16.2H424.3v-50.4h19.87a25.15,25.15,0,0,1,8,1.19,17,17,0,0,1,6.05,3.42,15.24,15.24,0,0,1,3.81,5.33,17.48,17.48,0,0,1,1.34,7A16.78,16.78,0,0,1,461.74,475.06Zm-10.38-14.14a12.74,12.74,0,0,0-7.94-2.27H433.09v18.21h10.33q5.06,0,8-2.49a8.27,8.27,0,0,0,2.93-6.62Q454.33,463.21,451.36,460.92Z" transform="translate(-244.73 -379.79)"/><path d="M524.52,485.86a25.29,25.29,0,0,1-5.47,8.32,26.32,26.32,0,0,1-8.35,5.65A26.61,26.61,0,0,1,500,501.92a27.07,27.07,0,0,1-10.65-2.05A25,25,0,0,1,475.71,486a27.16,27.16,0,0,1,0-20.16,25.29,25.29,0,0,1,5.47-8.32,26.27,26.27,0,0,1,8.35-5.65,26.61,26.61,0,0,1,10.66-2.09,26.94,26.94,0,0,1,10.66,2,25,25,0,0,1,13.67,13.86,27,27,0,0,1,0,20.16ZM515.92,469a17.57,17.57,0,0,0-3.53-5.73,16.77,16.77,0,0,0-5.43-3.88,17.45,17.45,0,0,0-13.79,0,16.22,16.22,0,0,0-5.36,3.82,17.56,17.56,0,0,0-3.5,5.68,19.8,19.8,0,0,0,0,13.9,17.58,17.58,0,0,0,3.53,5.72,17.16,17.16,0,0,0,19.22,3.93,16.36,16.36,0,0,0,5.37-3.82,17.37,17.37,0,0,0,3.49-5.69,19.77,19.77,0,0,0,0-13.89Z" transform="translate(-244.73 -379.79)"/><path d="M573.12,501.05,560.7,483.49H549.58v17.56H540.8v-50.4h22.46a25.71,25.71,0,0,1,7.81,1.12,17.05,17.05,0,0,1,5.91,3.17,13.71,13.71,0,0,1,3.7,5,17.92,17.92,0,0,1,.4,12.31,14.47,14.47,0,0,1-6.26,7.63A18.51,18.51,0,0,1,570,482l13.6,19.08Zm-2.88-40.27q-2.75-2.13-7.73-2.13H549.58v17h13a11.57,11.57,0,0,0,7.58-2.31,7.65,7.65,0,0,0,2.82-6.22A7.54,7.54,0,0,0,570.24,460.78Z" transform="translate(-244.73 -379.79)"/><path d="M617.55,501.05h-8.93V458.86h-16v-8.21h40.89v8.21h-16Z" transform="translate(-244.73 -379.79)"/><path d="M683.93,458.65H655.28v13.89h25.41v8H655.28v20.52h-8.79v-50.4h37.44Z" transform="translate(-244.73 -379.79)"/><path d="M745.42,485.86a25.45,25.45,0,0,1-5.47,8.32,26.27,26.27,0,0,1-19,7.74,27.12,27.12,0,0,1-10.66-2.05A25,25,0,0,1,696.6,486a27.16,27.16,0,0,1,0-20.16,25.31,25.31,0,0,1,5.48-8.32,26.15,26.15,0,0,1,8.35-5.65,26.56,26.56,0,0,1,10.65-2.09,26.94,26.94,0,0,1,10.66,2,25.29,25.29,0,0,1,8.28,5.58,25.58,25.58,0,0,1,5.4,8.28,27.16,27.16,0,0,1,0,20.16ZM736.82,469a17.74,17.74,0,0,0-3.53-5.73,16.82,16.82,0,0,0-5.44-3.88,16.75,16.75,0,0,0-19.15,3.78,17.54,17.54,0,0,0-3.49,5.68,19.8,19.8,0,0,0,0,13.9,17.42,17.42,0,0,0,3.53,5.72A17.16,17.16,0,0,0,728,492.38a16.22,16.22,0,0,0,5.36-3.82,17.4,17.4,0,0,0,3.5-5.69,19.77,19.77,0,0,0,0-13.89Z" transform="translate(-244.73 -379.79)"/><path d="M761.69,450.65h8.78v42.41H797v8H761.69Z" transform="translate(-244.73 -379.79)"/><path d="M819.15,450.65v50.4h-8.79v-50.4Z" transform="translate(-244.73 -379.79)"/><path d="M884.81,485.86a25.45,25.45,0,0,1-5.47,8.32,26.27,26.27,0,0,1-19,7.74,27.12,27.12,0,0,1-10.66-2.05A25,25,0,0,1,836,486a27.16,27.16,0,0,1,0-20.16,25.45,25.45,0,0,1,5.47-8.32,26.32,26.32,0,0,1,19-7.74,26.94,26.94,0,0,1,10.66,2,25,25,0,0,1,13.68,13.86,27.16,27.16,0,0,1,0,20.16ZM876.21,469a17.74,17.74,0,0,0-3.53-5.73,16.82,16.82,0,0,0-5.44-3.88,16.75,16.75,0,0,0-19.15,3.78,17.54,17.54,0,0,0-3.49,5.68,19.8,19.8,0,0,0,0,13.9,17.56,17.56,0,0,0,3.52,5.72,16.8,16.8,0,0,0,5.44,3.89,16.51,16.51,0,0,0,6.91,1.44,16.72,16.72,0,0,0,6.88-1.4,16.32,16.32,0,0,0,5.36-3.82,17.4,17.4,0,0,0,3.5-5.69,19.92,19.92,0,0,0,0-13.89Z" transform="translate(-244.73 -379.79)"/></svg>